<?xml version="1.0" encoding="UTF-8"?>
<svg width="40px" height="40px" viewBox="0 0 40 40" version="1.1" xmlns="http://www.w3.org/2000/svg" xmlns:xlink="http://www.w3.org/1999/xlink">
    <!-- Generator: Sketch 49.1 (51147) - http://www.bohemiancoding.com/sketch -->
    <title>微博 copy 3</title>
    <desc>Created with Sketch.</desc>
    <defs></defs>
    <g id="Page-1" stroke="none" stroke-width="1" fill="none" fill-rule="evenodd">
        <g id="微博-copy-2" transform="translate(1.000000, 4.000000)" fill="#DDDDDD" fill-rule="nonzero">
            <path d="M35.4502042,3.33118889 C32.9996989,0.534635267 29.3239409,-0.501125355 26.0566004,0.223907072 C25.2397653,0.431059187 24.8313477,1.15609161 24.9334521,1.98470012 C25.1376609,2.81330858 25.8523916,3.22761286 26.6692267,3.12403678 C29.0176277,2.60615647 31.6723418,3.33118889 33.4081164,5.29913406 C35.143891,7.26707922 35.654413,9.96005676 34.8375779,12.3423061 C34.7354735,12.7566103 34.7354735,13.0673385 34.9396822,13.4816428 C35.143891,13.792371 35.4502042,14.1030991 35.7565174,14.2066752 C36.4712481,14.4138273 37.2880832,13.9995231 37.5943964,13.2744907 C38.5133359,9.85648068 37.9007096,6.12774252 35.4502042,3.33118889 Z" id="Shape"></path>
            <path d="M30.8496926,12.4316036 C31.46875,12.6402372 32.1909836,12.3272867 32.3973361,11.5970689 C32.9132172,9.92799953 32.6036885,8.15461338 31.3655738,6.79849455 C30.127459,5.44237572 28.3734631,4.92079154 26.7226434,5.23374205 C26.0004098,5.33805891 25.5877049,6.0682767 25.7940574,6.69417769 C25.8972336,7.42439553 26.6194672,7.84166286 27.2385246,7.6330292 C28.0639344,7.42439553 28.8893443,7.73734605 29.5084016,8.36324704 C30.127459,8.98914803 30.2306352,9.92799953 30.0242828,10.7625342 C29.8179303,11.4927521 30.2306352,12.2229699 30.8496926,12.4316036 Z M28.3734631,14.8308908 C27.857582,14.6222571 27.4448771,14.5179402 27.7544058,13.8920393 C28.3734631,12.3272868 28.3734631,10.9711679 27.7544058,10.0323164 C26.516291,8.25893023 23.1114754,8.36324704 19.2939549,10.0323164 C19.2939549,10.0323164 18.0558401,10.5539006 18.3653689,9.61504906 C18.9844262,7.6330292 18.88125,6.0682767 17.9526639,5.1294252 C15.8891394,3.04308853 10.317623,5.23374205 5.57151639,10.0323164 C2.06352458,13.6834056 0,17.4388116 0,20.7769503 C0,27.1402771 8.04774588,31 15.8891394,31 C26.2067623,31 33.0163934,24.9496236 33.0163934,20.1510493 C33.0163934,17.2301779 30.540164,15.5611086 28.3734631,14.8308908 Z M15.8891394,28.7050297 C9.59538936,29.3309307 4.23022542,26.4100593 3.81752051,22.3417028 C3.4048156,18.1690295 8.15092213,14.3093066 14.4446721,13.6834056 C20.7384221,13.0575046 26.1035861,15.9783759 26.516291,20.0467324 C26.9289959,24.2194058 22.1828894,28.0791286 15.8891394,28.7050297 Z" id="Shape"></path>
            <path d="M16.7736129,16.9649188 C13.8193405,16.1322487 10.4575823,17.6935051 9.23512468,20.295599 C7.91079567,23.0017766 9.23512468,26.0202056 12.1893971,26.9569594 C15.245541,27.9977969 18.9129137,26.4365406 20.1353712,23.5221954 C21.3578288,20.711934 19.8297568,17.7975888 16.7736129,16.9649188 Z M14.5324408,23.9385304 C13.921212,24.8752842 12.6987544,25.395703 11.6800398,24.8752842 C10.7631966,24.4589492 10.4575822,23.3140279 11.068811,22.3772741 C11.6800398,21.4405203 12.9024973,21.0241853 13.8193405,21.4405203 C14.8380552,21.7527716 15.1436695,22.8976929 14.5324408,23.9385304 Z" id="Shape"></path>
        </g>
    </g>
</svg>