<?xml version="1.0" encoding="UTF-8"?>
<svg width="66px" height="66px" viewBox="0 0 66 66" version="1.1" xmlns="http://www.w3.org/2000/svg" xmlns:xlink="http://www.w3.org/1999/xlink">
    <!-- Generator: Sketch 49.1 (51147) - http://www.bohemiancoding.com/sketch -->
    <title>微博</title>
    <desc>Created with Sketch.</desc>
    <defs></defs>
    <g id="Page-1" stroke="none" stroke-width="1" fill="none" fill-rule="evenodd">
        <g id="微博-copy" transform="translate(1.000000, 6.000000)" fill="#FFFFFF" fill-rule="nonzero">
            <path d="M59.7056071,5.58780072 C55.5784402,0.896807545 49.3876899,-0.840597369 43.8848007,0.375586056 C42.5090784,0.723067023 41.8212172,1.93925045 41.9931825,3.32917439 C42.3371131,4.71909827 43.5408701,5.41406028 44.9165924,5.24031975 C48.871794,4.3716173 53.3428914,5.58780072 56.2663013,8.88887003 C59.1897112,12.1899393 60.0495376,16.707192 58.6738154,20.7032232 C58.50185,21.3981851 58.50185,21.9194066 58.8457806,22.6143685 C59.1897112,23.13559 59.7056071,23.6568114 60.221503,23.8305519 C61.42526,24.1780329 62.8009822,23.483071 63.3168781,22.2668875 C64.8645657,16.5334515 63.832774,10.2787939 59.7056071,5.58780072 Z" id="Shape"></path>
            <path d="M51.957377,20.8530124 C52.9999999,21.2029786 54.2163934,20.6780293 54.5639345,19.4531478 C55.4327869,16.6534186 54.9114754,13.6787063 52.8262295,11.4039263 C50.7409836,9.12914636 47.7868852,8.25423096 45.0065574,8.77918022 C43.7901639,8.95416333 43.095082,10.1790448 43.4426229,11.2289432 C43.6163935,12.4538248 44.8327868,13.1537571 45.8754098,12.8037909 C47.2655737,12.4538248 48.6557377,12.978774 49.6983606,14.0286725 C50.7409836,15.0785709 50.9147541,16.6534186 50.5672131,18.0532832 C50.2196721,19.2781648 50.9147541,20.5030463 51.957377,20.8530124 Z M47.7868852,24.8776232 C46.9180328,24.5276571 46.2229508,24.352674 46.7442623,23.3027755 C47.7868852,20.6780294 47.7868852,18.4032494 46.7442623,16.8284017 C44.6590164,13.8536894 38.9245902,14.0286725 32.495082,16.8284017 C32.495082,16.8284017 30.409836,17.7033171 30.9311475,16.1284694 C31.9737705,12.8037909 31.8,10.1790448 30.2360656,8.60419711 C26.7606558,5.1045356 17.3770492,8.77918022 9.38360655,16.8284017 C3.47540983,22.9528094 0,29.2522001 0,34.8516585 C0,45.5256261 13.5540983,51.9999999 26.7606558,52 C44.137705,52 55.6065574,41.8509816 55.6065574,33.8017601 C55.6065574,28.9022339 51.4360656,26.1025048 47.7868852,24.8776232 Z M26.7606558,48.1503723 C16.1606558,49.2002708 7.12459018,44.3007447 6.42950823,37.4764047 C5.73442628,30.4770817 13.7278689,24.0027078 24.3278689,22.9528094 C34.9278689,21.902911 43.9639344,26.802437 44.6590164,33.626777 C45.3540983,40.6261 37.3606558,47.1004738 26.7606558,48.1503723 Z" id="Shape"></path>
            <path d="M28.2502955,28.4572831 C23.2746788,27.0605463 17.6127701,29.6794279 15.5538942,34.0442305 C13.3234453,38.5836253 15.5538942,43.6467964 20.5295109,45.2181254 C25.6767006,46.9640465 31.8533283,44.3451648 33.9122041,39.4565858 C35.97108,34.7425989 33.3974851,29.8540199 28.2502955,28.4572831 Z M24.4756897,40.1549542 C23.4462518,41.7262832 21.3873759,42.5992437 19.6716459,41.7262832 C18.127489,41.0279148 17.61277,39.1074016 18.642208,37.5360726 C19.6716459,35.9647437 21.7305218,35.2663753 23.2746788,35.9647437 C24.9904087,36.48852 25.5051276,38.4090332 24.4756897,40.1549542 Z" id="Shape"></path>
        </g>
    </g>
</svg>