<?xml version="1.0" encoding="UTF-8"?>
<svg width="66px" height="66px" viewBox="0 0 66 66" version="1.1" xmlns="http://www.w3.org/2000/svg" xmlns:xlink="http://www.w3.org/1999/xlink">
    <!-- Generator: Sketch 49.1 (51147) - http://www.bohemiancoding.com/sketch -->
    <title>百度</title>
    <desc>Created with Sketch.</desc>
    <defs></defs>
    <g id="Page-1" stroke="none" stroke-width="1" fill="none" fill-rule="evenodd">
        <g id="百度推荐-copy" transform="translate(6.000000, 3.000000)" fill="#FFFFFF" fill-rule="nonzero">
            <path d="M20.0027795,18 C23.3234506,18 26,13.9735266 26,8.99554059 C26,4.02341549 23.3234506,0 20.0027795,0 C16.6898427,0 14,4.02341549 14,8.99554059 C14.0009668,13.9735266 16.6898427,18 20.0027795,18 Z" id="Shape"></path>
            <path d="M34.4719432,18.9469492 C39.2442414,19.583215 42.3068928,14.3634891 42.9190592,10.407228 C43.5424031,6.45416697 40.4667545,1.86350682 37.0856726,1.07710795 C33.7053705,0.28030911 29.4823324,5.8384345 29.0976164,9.46136269 C28.6354373,13.892823 29.7157615,18.3186834 34.4719432,18.9469492 Z" id="Shape"></path>
            <path d="M8.38212603,31.8272953 C14.9394566,30.4214242 14.0476026,22.6033066 13.8454244,20.8930934 C13.5247371,18.2564269 10.4205363,13.6562797 6.20356354,14.0203846 C0.895989846,14.4913777 0.122645016,22.139685 0.122645016,22.139685 C-0.600023233,25.6793736 1.83508913,33.2350093 8.38212603,31.8272953 Z" id="Shape"></path>
            <path d="M45.5993471,18 C39.7844096,18 39,22.8542152 39,26.2870383 C39,29.5674146 39.3102575,34.1432277 46.5362291,33.9965608 C53.7643257,33.8525431 52.9746035,26.5719429 52.9746035,24.8524005 C52.9748692,23.1439364 51.4089719,18 45.5993471,18 Z" id="Shape"></path>
            <path d="M14.4120897,44.2252822 C14.2151191,44.7489075 13.7655302,46.0909177 14.1517579,47.260901 C14.9200811,49.8858185 17.4145834,50 17.4145834,50 L21,50 L21,42 L17.1616896,42 C15.4366125,42.4695526 14.6027242,43.6996448 14.4120897,44.2252822 Z" id="Shape"></path>
            <path d="M44.945811,40.85182 C44.945811,40.85182 37.8513921,35.3466124 33.7049168,29.3904133 C28.090346,20.6153913 20.1089684,24.1856995 17.4433413,28.6457003 C14.7864664,33.11147 10.6457423,35.9363128 10.0548533,36.6857915 C9.46096356,37.416709 1.48433713,41.7387534 3.25625395,49.6290995 C5.02717052,57.5154322 11.2453833,57.359667 11.2453833,57.359667 C11.2453833,57.359667 15.8304619,57.8151736 21.1482129,56.6199706 C26.4619629,55.4403191 31.0412901,56.9179562 31.0412901,56.9179562 C31.0412901,56.9179562 43.4689636,61.0900045 46.8662628,53.0496624 C50.2625618,45.014086 44.945811,40.85182 44.945811,40.85182 Z M23.6868101,52.8083644 L15.6146611,52.8083644 C12.1225896,52.1138173 10.7317625,49.7221572 10.5617225,49.3125526 C10.3859311,48.9059578 9.39544814,46.9835999 9.91907134,43.7188021 C11.4261758,38.8256187 15.7289381,38.471949 15.7289381,38.471949 L20.0296998,38.471949 L20.0296998,33.1731741 L23.6868101,33.2308649 L23.6868101,52.8083644 Z M38.7333497,52.7506736 L29.4361626,52.7506736 C25.8358156,51.8208483 25.6655256,49.2576209 25.6655256,49.2576209 L25.6655256,38.9412511 L29.4361626,38.8805504 L29.4361626,48.1494558 C29.6667168,49.1387277 30.8887543,49.3125526 30.8887543,49.3125526 L34.7226562,49.3125526 L34.7226562,38.9412511 L38.7333497,38.9412511 L38.7333497,52.7506736 Z" id="Shape"></path>
        </g>
    </g>
</svg>