<?xml version="1.0" encoding="UTF-8"?>
<svg width="66px" height="66px" viewBox="0 0 66 66" version="1.1" xmlns="http://www.w3.org/2000/svg" xmlns:xlink="http://www.w3.org/1999/xlink">
    <!-- Generator: Sketch 49.1 (51147) - http://www.bohemiancoding.com/sketch -->
    <title>微信</title>
    <desc>Created with Sketch.</desc>
    <defs></defs>
    <g id="Page-1" stroke="none" stroke-width="1" fill="none" fill-rule="evenodd">
        <g id="微信-copy" transform="translate(2.000000, 8.000000)" fill="#FFFFFF" fill-rule="nonzero">
            <path d="M43.0932567,15.2464969 C43.39723,15.2464969 43.6993397,15.2531987 44,15.2643456 C42.085258,6.57762822 33.0484017,0 22.1877056,0 C9.93372934,0 0,8.37303132 0,18.7015571 C0,24.7360647 3.39181492,30.1019633 8.655164,33.5215313 L6.43838129,40 L13.7788814,36.0118718 C16.3723867,36.9078637 19.2111966,37.4031143 22.1876365,37.4031143 C22.7614172,37.4031143 23.3300903,37.3847868 23.8928275,37.3486791 C23.2719046,35.7193853 22.935491,33.983136 22.935491,32.1807576 C22.935629,22.8283036 31.9604754,15.2464969 43.0932567,15.2464969 Z M29.844741,9.24495139 C31.6542934,9.24495139 33.1212891,10.6983567 33.1212891,12.4912979 C33.1212891,14.2841708 31.6543624,15.7376444 29.844741,15.7376444 C28.0351196,15.7376444 26.568193,14.2842391 26.568193,12.4912979 C26.568262,10.6983567 28.0351887,9.24495139 29.844741,9.24495139 Z M14.6018319,15.737576 C12.7922795,15.737576 11.3252838,14.2841707 11.3252838,12.4912295 C11.3252838,10.6983566 12.7922105,9.24488296 14.6018319,9.24488296 C16.4114533,9.24488296 17.8783799,10.6982883 17.8783799,12.4912295 C17.8783799,14.2841023 16.4114533,15.737576 14.6018319,15.737576 Z" id="Shape"></path>
            <path d="M62,32.1661936 C62,23.237833 53.7172867,16 43.4999659,16 C33.282645,16 25,23.237833 25,32.1661936 C25,41.0945543 33.2827133,48.3323873 43.5000341,48.3323873 C45.6453341,48.3323873 47.7047484,48.0121951 49.6207474,47.4254102 L55.9460866,51 L54.1077255,45.4115292 C58.8796257,42.4877908 62,37.6457092 62,32.1661936 Z M37.7200004,29.8463808 C36.289187,29.8463808 35.1293221,28.651034 35.1293221,27.1764499 C35.1293221,25.7018658 36.2891869,24.506519 37.7200004,24.506519 C39.1508138,24.506519 40.3106786,25.7018657 40.3106786,27.1764499 C40.3106785,28.651034 39.1508138,29.8463808 37.7200004,29.8463808 Z M49.7724105,29.8463808 C48.3415971,29.8463808 47.1817322,28.651034 47.1817322,27.1764499 C47.1817322,25.7018658 48.341597,24.506519 49.7724105,24.506519 C51.2032239,24.506519 52.3630887,25.7018657 52.3630887,27.1764499 C52.3630887,28.651034 51.2031558,29.8463808 49.7724105,29.8463808 Z" id="Shape"></path>
        </g>
    </g>
</svg>